<svg width="1440" height="944" viewBox="0 0 1440 944" fill="none" xmlns="http://www.w3.org/2000/svg">
<g id="Group 29">
<g id="Group">
<g id="Group_2">
<g id="Group_3">
<g id="Group_4">
<g id="Vector">
<mask id="path-1-inside-1_197_376" fill="white">
<path d="M696.921 1183.62C696.592 1183.62 696.237 1183.62 695.907 1183.59C667.074 1182.78 643.212 1146.77 620.136 1111.93C599.519 1080.82 578.192 1048.64 553.417 1041.18C529.91 1034.13 495.346 1048.97 461.949 1063.34C422.618 1080.26 381.943 1097.73 356.153 1081.83C330.338 1065.91 327.701 1021.73 325.165 979.002C323.009 942.714 320.752 905.158 303.889 887.331C286.113 868.514 247.796 863.925 210.722 859.461C169.235 854.491 126.328 849.318 112.66 823.934C98.7127 798.018 118.264 758.965 137.131 721.181C153.665 688.139 170.756 653.956 164.924 629.332C159.091 604.735 128.458 581.861 98.8649 559.749C65.0112 534.466 30.0417 508.347 30.8532 478.931C31.6647 450.098 67.6739 426.236 102.517 403.159C133.631 382.543 165.811 361.216 173.267 336.441C180.317 312.934 165.482 278.37 151.104 244.973C134.189 205.642 116.717 164.966 132.617 139.177C148.542 113.362 192.717 110.724 235.446 108.189C271.734 106.033 309.29 103.776 327.117 86.9128C345.908 69.1364 350.523 30.8197 354.986 -6.25456C359.957 -47.7412 365.13 -90.6479 390.514 -104.316C416.43 -118.263 455.482 -98.7373 493.267 -79.8451C526.334 -63.3113 560.518 -46.245 585.115 -52.0521C609.713 -57.8846 632.587 -88.5177 654.699 -118.111C679.982 -151.965 706.177 -186.934 735.517 -186.123C764.35 -185.311 788.212 -149.302 811.288 -114.46C831.905 -83.3446 853.231 -51.1646 878.007 -43.7092C901.514 -36.6595 936.052 -51.4942 969.475 -65.8725C1008.81 -82.7867 1049.48 -100.259 1075.3 -84.3589C1101.11 -68.4338 1103.75 -24.2591 1106.28 18.47C1108.44 54.7581 1110.7 92.3142 1127.56 110.141C1145.34 128.957 1183.65 133.547 1220.73 138.01C1262.21 142.981 1305.12 148.154 1318.79 173.538C1332.74 199.454 1313.19 238.506 1294.32 276.291C1277.78 309.358 1260.69 343.516 1266.53 368.139C1272.36 392.737 1302.99 415.611 1332.58 437.723C1366.44 463.006 1401.41 489.125 1400.6 518.541C1399.78 547.374 1363.75 571.236 1328.93 594.312C1297.82 614.929 1265.64 636.255 1258.18 661.031C1251.13 684.538 1265.97 719.102 1280.35 752.499C1297.26 791.83 1314.73 832.505 1298.83 858.295C1282.91 884.11 1238.73 886.747 1196 889.283C1159.72 891.439 1122.16 893.696 1104.33 910.559C1085.52 928.335 1080.93 966.652 1076.46 1003.73C1071.49 1045.21 1066.32 1088.12 1040.94 1101.79C1015.02 1115.74 975.967 1096.18 938.183 1077.32C905.14 1060.78 870.957 1043.72 846.334 1049.52C821.736 1055.36 798.863 1085.99 776.75 1115.58C751.746 1149.03 725.931 1183.62 696.921 1183.62Z"/>
</mask>
<path d="M696.921 1183.62C696.592 1183.62 696.237 1183.62 695.907 1183.59C667.074 1182.78 643.212 1146.77 620.136 1111.93C599.519 1080.82 578.192 1048.64 553.417 1041.18C529.91 1034.13 495.346 1048.97 461.949 1063.34C422.618 1080.26 381.943 1097.73 356.153 1081.83C330.338 1065.91 327.701 1021.73 325.165 979.002C323.009 942.714 320.752 905.158 303.889 887.331C286.113 868.514 247.796 863.925 210.722 859.461C169.235 854.491 126.328 849.318 112.66 823.934C98.7127 798.018 118.264 758.965 137.131 721.181C153.665 688.139 170.756 653.956 164.924 629.332C159.091 604.735 128.458 581.861 98.8649 559.749C65.0112 534.466 30.0417 508.347 30.8532 478.931C31.6647 450.098 67.6739 426.236 102.517 403.159C133.631 382.543 165.811 361.216 173.267 336.441C180.317 312.934 165.482 278.37 151.104 244.973C134.189 205.642 116.717 164.966 132.617 139.177C148.542 113.362 192.717 110.724 235.446 108.189C271.734 106.033 309.29 103.776 327.117 86.9128C345.908 69.1364 350.523 30.8197 354.986 -6.25456C359.957 -47.7412 365.13 -90.6479 390.514 -104.316C416.43 -118.263 455.482 -98.7373 493.267 -79.8451C526.334 -63.3113 560.518 -46.245 585.115 -52.0521C609.713 -57.8846 632.587 -88.5177 654.699 -118.111C679.982 -151.965 706.177 -186.934 735.517 -186.123C764.35 -185.311 788.212 -149.302 811.288 -114.46C831.905 -83.3446 853.231 -51.1646 878.007 -43.7092C901.514 -36.6595 936.052 -51.4942 969.475 -65.8725C1008.81 -82.7867 1049.48 -100.259 1075.3 -84.3589C1101.11 -68.4338 1103.75 -24.2591 1106.28 18.47C1108.44 54.7581 1110.7 92.3142 1127.56 110.141C1145.34 128.957 1183.65 133.547 1220.73 138.01C1262.21 142.981 1305.12 148.154 1318.79 173.538C1332.74 199.454 1313.19 238.506 1294.32 276.291C1277.78 309.358 1260.69 343.516 1266.53 368.139C1272.36 392.737 1302.99 415.611 1332.58 437.723C1366.44 463.006 1401.41 489.125 1400.6 518.541C1399.78 547.374 1363.75 571.236 1328.93 594.312C1297.82 614.929 1265.64 636.255 1258.18 661.031C1251.13 684.538 1265.97 719.102 1280.35 752.499C1297.26 791.83 1314.73 832.505 1298.83 858.295C1282.91 884.11 1238.73 886.747 1196 889.283C1159.72 891.439 1122.16 893.696 1104.33 910.559C1085.52 928.335 1080.93 966.652 1076.46 1003.73C1071.49 1045.21 1066.32 1088.12 1040.94 1101.79C1015.02 1115.74 975.967 1096.18 938.183 1077.32C905.14 1060.78 870.957 1043.72 846.334 1049.52C821.736 1055.36 798.863 1085.99 776.75 1115.58C751.746 1149.03 725.931 1183.62 696.921 1183.62Z" stroke="url(#paint0_radial_197_376)" stroke-opacity="0.3" stroke-width="2" mask="url(#path-1-inside-1_197_376)"/>
</g>
<g id="Vector_2">
<mask id="path-2-inside-2_197_376" fill="white">
<path d="M539.698 1038.06C544.669 1038.06 549.385 1038.67 553.798 1039.99C579.004 1047.55 600.458 1079.93 621.201 1111.25C644.1 1145.81 667.784 1181.57 695.932 1182.35C724.613 1183.16 750.631 1148.45 775.711 1114.85C797.95 1085.05 820.976 1054.24 846.03 1048.31C871.084 1042.37 905.47 1059.57 938.741 1076.2C976.221 1094.94 1014.99 1114.32 1040.33 1100.7C1065.13 1087.36 1070.25 1044.78 1075.2 1003.6C1079.68 966.297 1084.3 927.752 1103.44 909.671C1121.63 892.504 1157.71 890.348 1195.93 888.066C1238.33 885.53 1282.2 882.918 1297.77 857.661C1313.34 832.404 1295.99 792.058 1279.2 753.031C1264.09 717.859 1249.81 684.665 1256.99 660.701C1264.55 635.495 1296.93 614.041 1328.25 593.298C1362.81 570.399 1398.57 546.714 1399.35 518.566C1400.17 489.81 1365.42 463.868 1331.85 438.788C1302.05 416.549 1271.24 393.523 1265.31 368.469C1259.37 343.415 1276.57 309.028 1293.2 275.758C1311.94 238.278 1331.34 199.505 1317.7 174.172C1304.34 149.371 1261.78 144.248 1220.6 139.304C1183.3 134.815 1144.75 130.2 1126.67 111.054C1109.51 92.872 1107.35 56.7867 1105.07 18.5714C1102.53 -23.8281 1099.92 -67.6984 1074.66 -83.2686C1049.41 -98.8388 1009.06 -81.4935 970.008 -64.7061C934.836 -49.5924 901.616 -35.3156 877.677 -42.492C852.471 -50.0489 831.018 -82.4318 810.274 -113.75C787.375 -148.313 763.691 -184.069 735.543 -184.855C735.213 -184.855 734.883 -184.88 734.554 -184.88C706.177 -184.88 680.565 -150.57 655.765 -117.376C633.525 -87.5796 610.5 -56.7689 585.445 -50.835C560.391 -44.9011 526.005 -62.0942 492.734 -78.7294C455.254 -97.4694 416.481 -116.869 391.148 -103.226C366.347 -89.8872 361.225 -47.3102 356.28 -6.12785C351.791 31.1746 347.176 69.7196 328.03 87.8003C309.848 104.968 273.763 107.124 235.548 109.406C193.148 111.942 149.278 114.554 133.708 139.811L133.175 139.481L133.708 139.811C118.138 165.068 135.483 205.413 152.27 244.44C167.384 279.612 181.661 312.807 174.484 336.771C166.928 361.977 134.545 383.43 103.227 404.174C68.6631 427.073 32.9075 450.757 32.1214 478.905C31.3099 507.662 66.0511 533.604 99.6259 558.683C129.422 580.923 160.233 603.949 166.167 629.003C172.101 654.057 154.908 688.443 138.272 721.714C119.532 759.194 100.133 797.967 113.776 823.3C127.14 848.101 169.692 853.223 210.874 858.168C248.176 862.657 286.721 867.272 304.802 886.418C321.97 904.6 324.125 940.685 326.408 978.9C328.943 1021.3 331.555 1065.17 356.812 1080.74C382.07 1096.31 422.415 1078.97 461.442 1062.18C490.173 1049.85 517.586 1038.06 539.698 1038.06Z"/>
</mask>
<path d="M539.698 1038.06C544.669 1038.06 549.385 1038.67 553.798 1039.99C579.004 1047.55 600.458 1079.93 621.201 1111.25C644.1 1145.81 667.784 1181.57 695.932 1182.35C724.613 1183.16 750.631 1148.45 775.711 1114.85C797.95 1085.05 820.976 1054.24 846.03 1048.31C871.084 1042.37 905.47 1059.57 938.741 1076.2C976.221 1094.94 1014.99 1114.32 1040.33 1100.7C1065.13 1087.36 1070.25 1044.78 1075.2 1003.6C1079.68 966.297 1084.3 927.752 1103.44 909.671C1121.63 892.504 1157.71 890.348 1195.93 888.066C1238.33 885.53 1282.2 882.918 1297.77 857.661C1313.34 832.404 1295.99 792.058 1279.2 753.031C1264.09 717.859 1249.81 684.665 1256.99 660.701C1264.55 635.495 1296.93 614.041 1328.25 593.298C1362.81 570.399 1398.57 546.714 1399.35 518.566C1400.17 489.81 1365.42 463.868 1331.85 438.788C1302.05 416.549 1271.24 393.523 1265.31 368.469C1259.37 343.415 1276.57 309.028 1293.2 275.758C1311.94 238.278 1331.34 199.505 1317.7 174.172C1304.34 149.371 1261.78 144.248 1220.6 139.304C1183.3 134.815 1144.75 130.2 1126.67 111.054C1109.51 92.872 1107.35 56.7867 1105.07 18.5714C1102.53 -23.8281 1099.92 -67.6984 1074.66 -83.2686C1049.41 -98.8388 1009.06 -81.4935 970.008 -64.7061C934.836 -49.5924 901.616 -35.3156 877.677 -42.492C852.471 -50.0489 831.018 -82.4318 810.274 -113.75C787.375 -148.313 763.691 -184.069 735.543 -184.855C735.213 -184.855 734.883 -184.88 734.554 -184.88C706.177 -184.88 680.565 -150.57 655.765 -117.376C633.525 -87.5796 610.5 -56.7689 585.445 -50.835C560.391 -44.9011 526.005 -62.0942 492.734 -78.7294C455.254 -97.4694 416.481 -116.869 391.148 -103.226C366.347 -89.8872 361.225 -47.3102 356.28 -6.12785C351.791 31.1746 347.176 69.7196 328.03 87.8003C309.848 104.968 273.763 107.124 235.548 109.406C193.148 111.942 149.278 114.554 133.708 139.811L133.175 139.481L133.708 139.811C118.138 165.068 135.483 205.413 152.27 244.44C167.384 279.612 181.661 312.807 174.484 336.771C166.928 361.977 134.545 383.43 103.227 404.174C68.6631 427.073 32.9075 450.757 32.1214 478.905C31.3099 507.662 66.0511 533.604 99.6259 558.683C129.422 580.923 160.233 603.949 166.167 629.003C172.101 654.057 154.908 688.443 138.272 721.714C119.532 759.194 100.133 797.967 113.776 823.3C127.14 848.101 169.692 853.223 210.874 858.168C248.176 862.657 286.721 867.272 304.802 886.418C321.97 904.6 324.125 940.685 326.408 978.9C328.943 1021.3 331.555 1065.17 356.812 1080.74C382.07 1096.31 422.415 1078.97 461.442 1062.18C490.173 1049.85 517.586 1038.06 539.698 1038.06Z" stroke="url(#paint1_radial_197_376)" stroke-opacity="0.3" stroke-width="2" mask="url(#path-2-inside-2_197_376)"/>
</g>
</g>
</g>
</g>
</g>
<g id="Group_5">
<g id="Group_6">
<g id="Group_7">
<g id="Group_8">
<g id="Vector_3">
<mask id="path-3-inside-3_197_376" fill="white">
<path d="M699.406 1197.8C699.102 1197.8 698.798 1197.8 698.493 1197.8C669.001 1197.09 644.302 1161.03 620.414 1126.13C599.138 1095.04 577.127 1062.91 551.769 1055.43C527.729 1048.33 492.759 1063.09 458.956 1077.34C419.042 1094.18 377.784 1111.6 351.309 1095.42C324.835 1079.24 321.462 1034.59 318.242 991.402C315.503 954.809 312.663 916.974 295.343 898.818C277.11 879.697 238.464 874.778 201.085 870.036C159.142 864.71 115.779 859.208 101.679 833.291C87.3012 806.842 106.447 767.004 124.984 728.51C141.163 694.91 157.874 660.143 151.813 635.038C145.753 609.933 115.018 586.654 85.2725 564.135C51.2159 538.346 15.9929 511.643 16.7029 481.543C17.413 452.051 53.4729 427.351 88.3662 403.464C119.456 382.188 151.585 360.176 159.066 334.818C166.166 310.778 151.408 275.809 137.156 242.006C120.318 202.091 102.922 160.833 119.075 134.358C135.254 107.884 179.911 104.511 223.096 101.291C259.689 98.5521 297.524 95.7119 315.68 78.392C334.801 60.1592 339.72 21.5128 344.462 -15.8657C349.788 -57.8088 355.291 -101.172 381.207 -115.271C407.656 -129.65 447.494 -110.504 485.989 -91.9668C519.589 -75.788 554.355 -59.1021 579.46 -65.1374C604.565 -71.1981 627.844 -101.933 650.363 -131.678C676.152 -165.735 702.804 -201.034 732.956 -200.248C762.448 -199.538 787.147 -163.478 811.035 -128.585C832.31 -97.4949 854.322 -65.3657 879.68 -57.8849C903.72 -50.7845 938.69 -65.5432 972.493 -79.7947C1012.41 -96.6328 1053.67 -114.029 1080.14 -97.8753C1106.61 -81.6966 1109.99 -37.0401 1113.23 6.1455C1115.97 42.7379 1118.81 80.5729 1136.13 98.7296C1154.36 117.85 1193.01 122.77 1230.39 127.512C1272.33 132.837 1315.7 138.34 1329.79 164.282C1344.17 190.731 1325.03 230.569 1306.49 269.063C1290.31 302.663 1273.6 337.43 1279.66 362.535C1285.72 387.64 1316.48 410.919 1346.2 433.437C1380.26 459.227 1415.48 485.93 1414.77 516.03C1414.06 545.522 1378 570.221 1343.11 594.109C1312.02 615.385 1279.89 637.396 1272.41 662.755C1265.31 686.795 1280.07 721.764 1294.32 755.567C1311.16 795.482 1328.58 836.74 1312.4 863.214C1296.22 889.689 1251.56 893.061 1208.38 896.282C1171.79 899.021 1133.95 901.861 1115.79 919.181C1096.67 937.413 1091.75 976.06 1087.01 1013.44C1081.69 1055.38 1076.18 1098.74 1050.27 1112.84C1023.82 1127.22 983.98 1108.08 945.486 1089.54C911.886 1073.36 877.119 1056.67 852.014 1062.71C826.909 1068.77 803.63 1099.51 781.111 1129.25C755.55 1162.93 729.152 1197.8 699.406 1197.8Z"/>
</mask>
<path d="M699.406 1197.8C699.102 1197.8 698.798 1197.8 698.493 1197.8C669.001 1197.09 644.302 1161.03 620.414 1126.13C599.138 1095.04 577.127 1062.91 551.769 1055.43C527.729 1048.33 492.759 1063.09 458.956 1077.34C419.042 1094.18 377.784 1111.6 351.309 1095.42C324.835 1079.24 321.462 1034.59 318.242 991.402C315.503 954.809 312.663 916.974 295.343 898.818C277.11 879.697 238.464 874.778 201.085 870.036C159.142 864.71 115.779 859.208 101.679 833.291C87.3012 806.842 106.447 767.004 124.984 728.51C141.163 694.91 157.874 660.143 151.813 635.038C145.753 609.933 115.018 586.654 85.2725 564.135C51.2159 538.346 15.9929 511.643 16.7029 481.543C17.413 452.051 53.4729 427.351 88.3662 403.464C119.456 382.188 151.585 360.176 159.066 334.818C166.166 310.778 151.408 275.809 137.156 242.006C120.318 202.091 102.922 160.833 119.075 134.358C135.254 107.884 179.911 104.511 223.096 101.291C259.689 98.5521 297.524 95.7119 315.68 78.392C334.801 60.1592 339.72 21.5128 344.462 -15.8657C349.788 -57.8088 355.291 -101.172 381.207 -115.271C407.656 -129.65 447.494 -110.504 485.989 -91.9668C519.589 -75.788 554.355 -59.1021 579.46 -65.1374C604.565 -71.1981 627.844 -101.933 650.363 -131.678C676.152 -165.735 702.804 -201.034 732.956 -200.248C762.448 -199.538 787.147 -163.478 811.035 -128.585C832.31 -97.4949 854.322 -65.3657 879.68 -57.8849C903.72 -50.7845 938.69 -65.5432 972.493 -79.7947C1012.41 -96.6328 1053.67 -114.029 1080.14 -97.8753C1106.61 -81.6966 1109.99 -37.0401 1113.23 6.1455C1115.97 42.7379 1118.81 80.5729 1136.13 98.7296C1154.36 117.85 1193.01 122.77 1230.39 127.512C1272.33 132.837 1315.7 138.34 1329.79 164.282C1344.17 190.731 1325.03 230.569 1306.49 269.063C1290.31 302.663 1273.6 337.43 1279.66 362.535C1285.72 387.64 1316.48 410.919 1346.2 433.437C1380.26 459.227 1415.48 485.93 1414.77 516.03C1414.06 545.522 1378 570.221 1343.11 594.109C1312.02 615.385 1279.89 637.396 1272.41 662.755C1265.31 686.795 1280.07 721.764 1294.32 755.567C1311.16 795.482 1328.58 836.74 1312.4 863.214C1296.22 889.689 1251.56 893.061 1208.38 896.282C1171.79 899.021 1133.95 901.861 1115.79 919.181C1096.67 937.413 1091.75 976.06 1087.01 1013.44C1081.69 1055.38 1076.18 1098.74 1050.27 1112.84C1023.82 1127.22 983.98 1108.08 945.486 1089.54C911.886 1073.36 877.119 1056.67 852.014 1062.71C826.909 1068.77 803.63 1099.51 781.111 1129.25C755.55 1162.93 729.152 1197.8 699.406 1197.8Z" stroke="url(#paint2_radial_197_376)" stroke-opacity="0.3" stroke-width="2" mask="url(#path-3-inside-3_197_376)"/>
</g>
<g id="Vector_4">
<mask id="path-4-inside-4_197_376" fill="white">
<path d="M537.644 1052.26C542.767 1052.26 547.61 1052.87 552.149 1054.22C577.914 1061.82 600.052 1094.15 621.48 1125.42C645.19 1160.04 669.712 1195.84 698.544 1196.53C698.823 1196.53 699.128 1196.53 699.406 1196.53C728.518 1196.53 754.714 1161.91 780.072 1128.44C802.717 1098.54 826.149 1067.6 851.685 1061.44C877.221 1055.28 912.19 1072.09 945.993 1088.35C984.209 1106.73 1023.72 1125.75 1049.63 1111.68C1074.99 1097.88 1080.44 1054.85 1085.74 1013.24C1090.51 975.629 1095.46 936.754 1114.91 918.217C1133.39 900.593 1169.76 897.88 1208.28 894.989C1251.16 891.768 1295.49 888.446 1311.31 862.504C1327.16 836.588 1309.86 795.608 1293.15 755.998C1278.14 720.42 1263.96 686.82 1271.19 662.324C1278.8 636.56 1311.13 614.396 1342.4 592.993C1377.01 569.283 1412.82 544.761 1413.5 515.929C1414.21 486.462 1379.24 459.988 1345.44 434.376C1315.54 411.731 1284.61 388.299 1278.44 362.763C1272.28 337.227 1289.09 302.258 1305.35 268.455C1323.73 230.239 1342.75 190.705 1328.68 164.814C1314.88 139.456 1271.85 134.003 1230.21 128.704C1192.63 123.936 1153.76 118.991 1135.22 99.5412C1117.59 81.0548 1114.88 44.6906 1111.99 6.17096C1108.77 -36.7104 1105.45 -81.0371 1079.51 -96.8609C1053.56 -112.71 1012.61 -95.4155 973 -78.7042C937.422 -63.6919 903.797 -49.5164 879.326 -56.7436C853.561 -64.3512 831.423 -96.6834 809.995 -127.95C786.285 -162.565 761.763 -198.371 732.931 -199.056C732.652 -199.056 732.347 -199.056 732.068 -199.056C702.957 -199.056 676.761 -164.441 651.403 -130.968C628.758 -101.07 605.326 -70.133 579.79 -63.9708C554.229 -57.8087 519.285 -74.6214 485.482 -90.8763C447.266 -109.261 407.758 -128.28 381.841 -114.206C356.483 -100.411 351.031 -57.3776 345.731 -15.7642C340.963 21.8425 336.018 60.6919 316.568 79.229C298.082 96.8532 261.718 99.5666 223.198 102.457C180.317 105.678 135.99 109 120.166 134.942L119.634 134.612L120.166 134.942C104.317 160.884 121.612 201.838 138.323 241.448C153.335 277.026 167.511 310.626 160.283 335.122C152.676 360.887 120.344 383.025 89.0765 404.453C54.4621 428.163 18.6558 452.685 17.9711 481.517C17.261 510.984 52.2305 537.458 86.0335 563.07C115.931 585.716 146.869 609.147 153.031 634.683C159.193 660.219 142.38 695.189 126.125 728.991C107.74 767.207 88.7215 806.741 102.795 832.632C116.591 857.99 159.624 863.443 201.237 868.743C238.844 873.51 277.719 878.455 296.256 897.905C313.88 916.391 316.594 952.755 319.484 991.275C322.705 1034.16 326.027 1078.48 351.969 1094.31C377.885 1110.13 418.865 1092.86 458.475 1076.15C487.46 1063.93 515.126 1052.26 537.644 1052.26Z"/>
</mask>
<path d="M537.644 1052.26C542.767 1052.26 547.61 1052.87 552.149 1054.22C577.914 1061.82 600.052 1094.15 621.48 1125.42C645.19 1160.04 669.712 1195.84 698.544 1196.53C698.823 1196.53 699.128 1196.53 699.406 1196.53C728.518 1196.53 754.714 1161.91 780.072 1128.44C802.717 1098.54 826.149 1067.6 851.685 1061.44C877.221 1055.28 912.19 1072.09 945.993 1088.35C984.209 1106.73 1023.72 1125.75 1049.63 1111.68C1074.99 1097.88 1080.44 1054.85 1085.74 1013.24C1090.51 975.629 1095.46 936.754 1114.91 918.217C1133.39 900.593 1169.76 897.88 1208.28 894.989C1251.16 891.768 1295.49 888.446 1311.31 862.504C1327.16 836.588 1309.86 795.608 1293.15 755.998C1278.14 720.42 1263.96 686.82 1271.19 662.324C1278.8 636.56 1311.13 614.396 1342.4 592.993C1377.01 569.283 1412.82 544.761 1413.5 515.929C1414.21 486.462 1379.24 459.988 1345.44 434.376C1315.54 411.731 1284.61 388.299 1278.44 362.763C1272.28 337.227 1289.09 302.258 1305.35 268.455C1323.73 230.239 1342.75 190.705 1328.68 164.814C1314.88 139.456 1271.85 134.003 1230.21 128.704C1192.63 123.936 1153.76 118.991 1135.22 99.5412C1117.59 81.0548 1114.88 44.6906 1111.99 6.17096C1108.77 -36.7104 1105.45 -81.0371 1079.51 -96.8609C1053.56 -112.71 1012.61 -95.4155 973 -78.7042C937.422 -63.6919 903.797 -49.5164 879.326 -56.7436C853.561 -64.3512 831.423 -96.6834 809.995 -127.95C786.285 -162.565 761.763 -198.371 732.931 -199.056C732.652 -199.056 732.347 -199.056 732.068 -199.056C702.957 -199.056 676.761 -164.441 651.403 -130.968C628.758 -101.07 605.326 -70.133 579.79 -63.9708C554.229 -57.8087 519.285 -74.6214 485.482 -90.8763C447.266 -109.261 407.758 -128.28 381.841 -114.206C356.483 -100.411 351.031 -57.3776 345.731 -15.7642C340.963 21.8425 336.018 60.6919 316.568 79.229C298.082 96.8532 261.718 99.5666 223.198 102.457C180.317 105.678 135.99 109 120.166 134.942L119.634 134.612L120.166 134.942C104.317 160.884 121.612 201.838 138.323 241.448C153.335 277.026 167.511 310.626 160.283 335.122C152.676 360.887 120.344 383.025 89.0765 404.453C54.4621 428.163 18.6558 452.685 17.9711 481.517C17.261 510.984 52.2305 537.458 86.0335 563.07C115.931 585.716 146.869 609.147 153.031 634.683C159.193 660.219 142.38 695.189 126.125 728.991C107.74 767.207 88.7215 806.741 102.795 832.632C116.591 857.99 159.624 863.443 201.237 868.743C238.844 873.51 277.719 878.455 296.256 897.905C313.88 916.391 316.594 952.755 319.484 991.275C322.705 1034.16 326.027 1078.48 351.969 1094.31C377.885 1110.13 418.865 1092.86 458.475 1076.15C487.46 1063.93 515.126 1052.26 537.644 1052.26Z" stroke="url(#paint3_radial_197_376)" stroke-opacity="0.3" stroke-width="2" mask="url(#path-4-inside-4_197_376)"/>
</g>
</g>
</g>
</g>
</g>
<g id="Group_9">
<g id="Group_10">
<g id="Group_11">
<g id="Group_12">
<g id="Vector_5">
<mask id="path-5-inside-5_197_376" fill="white">
<path d="M701.892 1211.97C701.639 1211.97 701.36 1211.97 701.106 1211.97C670.93 1211.39 645.394 1175.25 620.694 1140.33C598.734 1109.29 576.063 1077.19 550.147 1069.66C525.549 1062.51 490.174 1077.16 455.965 1091.31C415.493 1108.08 373.626 1125.42 346.467 1108.96C319.308 1092.53 315.25 1047.39 311.32 1003.78C307.998 966.906 304.549 928.766 286.823 910.305C268.134 890.855 229.158 885.631 191.501 880.61C149.101 874.93 105.256 869.072 90.7257 842.623C75.8909 815.616 94.6816 775.043 112.838 735.813C128.637 701.655 144.993 666.331 138.679 640.718C132.39 615.106 101.503 591.396 71.6814 568.497C37.3966 542.175 1.94534 514.94 2.52858 484.129C3.11183 453.953 39.2478 428.416 74.1665 403.717C105.205 381.782 137.309 359.086 144.841 333.17C151.992 308.572 137.335 273.222 123.185 238.988C106.423 198.516 89.0774 156.649 105.535 129.49C121.967 102.331 167.106 98.2734 210.722 94.3428C247.594 91.0208 285.733 87.572 304.194 69.8464C323.644 51.1571 328.843 12.181 333.889 -25.4764C339.569 -67.8759 345.427 -111.721 371.901 -126.251C398.908 -141.086 439.482 -122.295 478.712 -104.139C512.87 -88.3403 548.169 -71.984 573.781 -78.2983C599.393 -84.5872 623.103 -115.474 646.028 -145.321C672.35 -179.606 699.559 -215.032 730.395 -214.448C760.572 -213.865 786.108 -177.729 810.807 -142.811C832.768 -111.772 855.438 -79.6677 881.355 -72.1362C905.927 -64.9851 941.303 -79.6423 975.511 -93.7924C1015.98 -110.554 1057.85 -127.9 1085.01 -111.442C1112.17 -95.0096 1116.23 -49.8714 1120.16 -6.25465C1123.48 30.6167 1126.93 68.756 1144.65 87.217C1163.34 106.667 1202.32 111.891 1239.98 116.912C1282.38 122.592 1326.22 128.45 1340.75 154.899C1355.59 181.906 1336.79 222.48 1318.64 261.709C1302.84 295.867 1286.48 331.192 1292.8 356.779C1299.09 382.391 1329.95 406.101 1359.8 429C1394.08 455.322 1429.53 482.557 1428.92 513.368C1428.34 543.544 1392.2 569.08 1357.28 593.78C1326.25 615.715 1294.14 638.411 1286.61 664.327C1279.46 688.9 1294.12 724.275 1308.27 758.484C1325.03 798.956 1342.37 840.823 1325.92 867.982C1309.48 895.141 1264.35 899.198 1220.73 903.129C1183.86 906.451 1145.72 909.9 1127.26 927.625C1107.81 946.314 1102.58 985.291 1097.56 1022.95C1091.88 1065.35 1086.02 1109.19 1059.57 1123.72C1032.57 1138.56 991.994 1119.77 952.765 1101.61C918.607 1085.81 883.282 1069.46 857.695 1075.77C832.083 1082.06 808.373 1112.95 785.474 1142.77C759.355 1176.82 732.373 1211.95 701.892 1211.97Z"/>
</mask>
<path d="M701.892 1211.97C701.639 1211.97 701.36 1211.97 701.106 1211.97C670.93 1211.39 645.394 1175.25 620.694 1140.33C598.734 1109.29 576.063 1077.19 550.147 1069.66C525.549 1062.51 490.174 1077.16 455.965 1091.31C415.493 1108.08 373.626 1125.42 346.467 1108.96C319.308 1092.53 315.25 1047.39 311.32 1003.78C307.998 966.906 304.549 928.766 286.823 910.305C268.134 890.855 229.158 885.631 191.501 880.61C149.101 874.93 105.256 869.072 90.7257 842.623C75.8909 815.616 94.6816 775.043 112.838 735.813C128.637 701.655 144.993 666.331 138.679 640.718C132.39 615.106 101.503 591.396 71.6814 568.497C37.3966 542.175 1.94534 514.94 2.52858 484.129C3.11183 453.953 39.2478 428.416 74.1665 403.717C105.205 381.782 137.309 359.086 144.841 333.17C151.992 308.572 137.335 273.222 123.185 238.988C106.423 198.516 89.0774 156.649 105.535 129.49C121.967 102.331 167.106 98.2734 210.722 94.3428C247.594 91.0208 285.733 87.572 304.194 69.8464C323.644 51.1571 328.843 12.181 333.889 -25.4764C339.569 -67.8759 345.427 -111.721 371.901 -126.251C398.908 -141.086 439.482 -122.295 478.712 -104.139C512.87 -88.3403 548.169 -71.984 573.781 -78.2983C599.393 -84.5872 623.103 -115.474 646.028 -145.321C672.35 -179.606 699.559 -215.032 730.395 -214.448C760.572 -213.865 786.108 -177.729 810.807 -142.811C832.768 -111.772 855.438 -79.6677 881.355 -72.1362C905.927 -64.9851 941.303 -79.6423 975.511 -93.7924C1015.98 -110.554 1057.85 -127.9 1085.01 -111.442C1112.17 -95.0096 1116.23 -49.8714 1120.16 -6.25465C1123.48 30.6167 1126.93 68.756 1144.65 87.217C1163.34 106.667 1202.32 111.891 1239.98 116.912C1282.38 122.592 1326.22 128.45 1340.75 154.899C1355.59 181.906 1336.79 222.48 1318.64 261.709C1302.84 295.867 1286.48 331.192 1292.8 356.779C1299.09 382.391 1329.95 406.101 1359.8 429C1394.08 455.322 1429.53 482.557 1428.92 513.368C1428.34 543.544 1392.2 569.08 1357.28 593.78C1326.25 615.715 1294.14 638.411 1286.61 664.327C1279.46 688.9 1294.12 724.275 1308.27 758.484C1325.03 798.956 1342.37 840.823 1325.92 867.982C1309.48 895.141 1264.35 899.198 1220.73 903.129C1183.86 906.451 1145.72 909.9 1127.26 927.625C1107.81 946.314 1102.58 985.291 1097.56 1022.95C1091.88 1065.35 1086.02 1109.19 1059.57 1123.72C1032.57 1138.56 991.994 1119.77 952.765 1101.61C918.607 1085.81 883.282 1069.46 857.695 1075.77C832.083 1082.06 808.373 1112.95 785.474 1142.77C759.355 1176.82 732.373 1211.95 701.892 1211.97Z" stroke="url(#paint4_radial_197_376)" stroke-opacity="0.3" stroke-width="2" mask="url(#path-5-inside-5_197_376)"/>
</g>
<g id="Vector_6">
<mask id="path-6-inside-6_197_376" fill="white">
<path d="M535.566 1066.44C540.84 1066.44 545.836 1067.05 550.502 1068.42C576.824 1076.07 599.647 1108.36 621.734 1139.57C646.256 1174.24 671.589 1210.09 701.132 1210.68C731.232 1211.29 758.315 1176.06 784.46 1142.03C807.511 1112.01 831.348 1080.97 857.391 1074.55C883.435 1068.14 918.962 1084.59 953.297 1100.49C992.248 1118.52 1032.52 1137.16 1058.97 1122.63C1084.86 1108.41 1090.69 1064.89 1096.32 1022.8C1101.39 984.885 1106.64 945.706 1126.39 926.712C1145.19 908.657 1181.83 905.36 1220.63 901.861C1263.94 897.956 1308.75 893.924 1324.85 867.297C1340.95 840.696 1323.74 799.133 1307.1 758.94C1292.19 722.931 1278.12 688.95 1285.39 663.922C1293.05 637.599 1325.33 614.777 1356.55 592.689C1391.21 568.168 1427.07 542.834 1427.65 513.292C1428.24 483.14 1393.04 456.108 1359.01 429.963C1328.98 406.913 1297.95 383.075 1291.53 357.032C1285.11 330.989 1301.57 295.462 1317.47 261.126C1335.5 222.175 1354.14 181.906 1339.61 155.457C1325.38 129.566 1281.87 123.733 1239.77 118.104C1201.86 113.032 1162.68 107.783 1143.69 88.0285C1125.63 69.2378 1122.34 32.5947 1118.84 -6.20388C1114.93 -49.5163 1110.9 -94.3249 1084.27 -110.428C1057.65 -126.53 1016.11 -109.312 975.917 -92.6766C939.933 -77.7657 905.928 -63.6917 880.924 -70.9697C854.602 -78.6279 831.779 -110.909 809.692 -142.126C785.17 -176.791 759.837 -212.648 730.294 -213.231C730.041 -213.231 729.787 -213.231 729.533 -213.231C699.661 -213.231 672.882 -178.338 646.941 -144.586C623.89 -114.561 600.053 -83.5221 574.009 -77.1064C547.966 -70.7161 512.439 -87.1484 478.103 -103.048C439.152 -121.078 398.883 -139.717 372.434 -125.186C346.543 -110.96 340.711 -67.4448 335.081 -25.3496C330.009 12.5361 324.76 51.7405 305.006 70.734C286.215 88.7893 249.572 92.0859 210.773 95.5854C167.461 99.4906 122.652 103.523 106.55 130.124L106.017 129.794L106.55 130.124C90.4469 156.725 107.665 198.288 124.301 238.481C139.211 274.49 153.285 308.471 146.007 333.499C138.349 359.822 106.068 382.644 74.8513 404.732C40.1862 429.253 4.32917 454.587 3.74592 484.129C3.16267 514.281 38.3604 541.313 72.3916 567.458C102.416 590.508 133.455 614.346 139.871 640.389C146.286 666.432 129.829 701.959 113.929 736.295C95.8989 775.246 77.2604 815.515 91.7909 841.964C106.017 867.855 149.532 873.688 191.628 879.317C229.513 884.389 268.718 889.638 287.711 909.392C305.766 928.183 309.063 964.826 312.563 1003.62C316.468 1046.94 320.5 1091.75 347.101 1107.85C373.702 1123.95 415.265 1106.73 455.458 1090.1C484.747 1078.03 512.692 1066.44 535.566 1066.44Z"/>
</mask>
<path d="M535.566 1066.44C540.84 1066.44 545.836 1067.05 550.502 1068.42C576.824 1076.07 599.647 1108.36 621.734 1139.57C646.256 1174.24 671.589 1210.09 701.132 1210.68C731.232 1211.29 758.315 1176.06 784.46 1142.03C807.511 1112.01 831.348 1080.97 857.391 1074.55C883.435 1068.14 918.962 1084.59 953.297 1100.49C992.248 1118.52 1032.52 1137.16 1058.97 1122.63C1084.86 1108.41 1090.69 1064.89 1096.32 1022.8C1101.39 984.885 1106.64 945.706 1126.39 926.712C1145.19 908.657 1181.83 905.36 1220.63 901.861C1263.94 897.956 1308.75 893.924 1324.85 867.297C1340.95 840.696 1323.74 799.133 1307.1 758.94C1292.19 722.931 1278.12 688.95 1285.39 663.922C1293.05 637.599 1325.33 614.777 1356.55 592.689C1391.21 568.168 1427.07 542.834 1427.65 513.292C1428.24 483.14 1393.04 456.108 1359.01 429.963C1328.98 406.913 1297.95 383.075 1291.53 357.032C1285.11 330.989 1301.57 295.462 1317.47 261.126C1335.5 222.175 1354.14 181.906 1339.61 155.457C1325.38 129.566 1281.87 123.733 1239.77 118.104C1201.86 113.032 1162.68 107.783 1143.69 88.0285C1125.63 69.2378 1122.34 32.5947 1118.84 -6.20388C1114.93 -49.5163 1110.9 -94.3249 1084.27 -110.428C1057.65 -126.53 1016.11 -109.312 975.917 -92.6766C939.933 -77.7657 905.928 -63.6917 880.924 -70.9697C854.602 -78.6279 831.779 -110.909 809.692 -142.126C785.17 -176.791 759.837 -212.648 730.294 -213.231C730.041 -213.231 729.787 -213.231 729.533 -213.231C699.661 -213.231 672.882 -178.338 646.941 -144.586C623.89 -114.561 600.053 -83.5221 574.009 -77.1064C547.966 -70.7161 512.439 -87.1484 478.103 -103.048C439.152 -121.078 398.883 -139.717 372.434 -125.186C346.543 -110.96 340.711 -67.4448 335.081 -25.3496C330.009 12.5361 324.76 51.7405 305.006 70.734C286.215 88.7893 249.572 92.0859 210.773 95.5854C167.461 99.4906 122.652 103.523 106.55 130.124L106.017 129.794L106.55 130.124C90.4469 156.725 107.665 198.288 124.301 238.481C139.211 274.49 153.285 308.471 146.007 333.499C138.349 359.822 106.068 382.644 74.8513 404.732C40.1862 429.253 4.32917 454.587 3.74592 484.129C3.16267 514.281 38.3604 541.313 72.3916 567.458C102.416 590.508 133.455 614.346 139.871 640.389C146.286 666.432 129.829 701.959 113.929 736.295C95.8989 775.246 77.2604 815.515 91.7909 841.964C106.017 867.855 149.532 873.688 191.628 879.317C229.513 884.389 268.718 889.638 287.711 909.392C305.766 928.183 309.063 964.826 312.563 1003.62C316.468 1046.94 320.5 1091.75 347.101 1107.85C373.702 1123.95 415.265 1106.73 455.458 1090.1C484.747 1078.03 512.692 1066.44 535.566 1066.44Z" stroke="url(#paint5_radial_197_376)" stroke-opacity="0.3" stroke-width="2" mask="url(#path-6-inside-6_197_376)"/>
</g>
</g>
</g>
</g>
</g>
<g id="Group_13">
<g id="Group_14">
<g id="Group_15">
<g id="Group_16">
<g id="Vector_7">
<mask id="path-7-inside-7_197_376" fill="white">
<path d="M704.326 1226.12C704.098 1226.12 703.895 1226.12 703.667 1226.12C672.806 1225.64 646.433 1189.48 620.947 1154.51C598.353 1123.52 574.972 1091.44 548.523 1083.86C523.418 1076.68 487.612 1091.21 452.997 1105.26C411.917 1121.95 369.466 1139.19 341.623 1122.51C313.779 1105.82 309.012 1060.22 304.396 1016.13C300.491 978.976 296.484 940.533 278.302 921.767C259.157 901.987 219.876 896.485 181.889 891.134C139.033 885.099 94.7063 878.886 79.7448 851.879C64.4789 824.314 82.8639 783.005 100.666 743.04C116.109 708.349 132.085 672.467 125.542 646.373C119 620.279 88.037 596.138 58.0632 572.808C23.5502 545.928 -12.1293 518.135 -11.6475 486.64C-11.1657 455.778 24.9956 429.405 59.9651 403.92C90.9532 381.325 123.032 357.945 130.614 331.496C137.816 306.391 123.26 270.585 109.186 235.97C92.5001 194.915 75.2563 152.439 91.9422 124.595C108.628 96.7517 154.223 91.9843 198.321 87.369C235.472 83.4638 273.915 79.4571 292.681 61.275C312.46 42.1293 317.963 2.84889 323.314 -35.1382C329.349 -77.9942 335.562 -122.321 362.569 -137.283C390.134 -152.548 431.443 -134.163 471.408 -116.362C506.098 -100.918 541.981 -84.9425 568.075 -91.485C594.169 -98.0275 618.31 -128.99 641.64 -158.964C668.317 -193.249 695.932 -228.675 727.149 -228.675C727.377 -228.675 727.58 -228.675 727.808 -228.675C758.67 -228.193 785.042 -192.032 810.528 -157.062C833.122 -126.074 856.503 -93.9955 882.952 -86.4386C908.057 -79.2368 943.863 -93.7926 978.478 -107.841C1019.53 -124.527 1062.01 -141.796 1089.85 -125.085C1117.7 -108.399 1122.46 -62.8044 1127.08 -18.7059C1130.98 18.4444 1134.99 56.888 1153.17 75.6533C1172.32 95.433 1211.6 100.936 1249.59 106.286C1292.44 112.322 1336.77 118.535 1351.73 145.542C1367 173.106 1348.61 214.415 1330.81 254.381C1315.37 289.071 1299.39 324.953 1305.93 351.047C1312.48 377.141 1343.44 401.283 1373.41 424.613C1407.92 451.493 1443.6 479.26 1443.12 510.781C1442.64 541.642 1406.48 568.015 1371.51 593.501C1340.52 616.095 1308.44 639.476 1300.89 665.925C1293.68 691.03 1308.24 726.836 1322.29 761.45C1338.98 802.506 1356.22 844.981 1339.53 872.825C1322.85 900.669 1277.25 905.436 1233.15 910.052C1196 913.957 1157.56 917.963 1138.79 936.146C1119.01 955.291 1113.51 994.572 1108.16 1032.56C1102.13 1075.41 1095.91 1119.74 1068.91 1134.7C1041.34 1149.97 1000.03 1131.58 960.067 1113.78C925.377 1098.34 889.494 1082.36 863.4 1088.91C837.307 1095.45 813.165 1126.41 789.835 1156.38C763.158 1190.69 735.568 1226.12 704.326 1226.12Z"/>
</mask>
<path d="M704.326 1226.12C704.098 1226.12 703.895 1226.12 703.667 1226.12C672.806 1225.64 646.433 1189.48 620.947 1154.51C598.353 1123.52 574.972 1091.44 548.523 1083.86C523.418 1076.68 487.612 1091.21 452.997 1105.26C411.917 1121.95 369.466 1139.19 341.623 1122.51C313.779 1105.82 309.012 1060.22 304.396 1016.13C300.491 978.976 296.484 940.533 278.302 921.767C259.157 901.987 219.876 896.485 181.889 891.134C139.033 885.099 94.7063 878.886 79.7448 851.879C64.4789 824.314 82.8639 783.005 100.666 743.04C116.109 708.349 132.085 672.467 125.542 646.373C119 620.279 88.037 596.138 58.0632 572.808C23.5502 545.928 -12.1293 518.135 -11.6475 486.64C-11.1657 455.778 24.9956 429.405 59.9651 403.92C90.9532 381.325 123.032 357.945 130.614 331.496C137.816 306.391 123.26 270.585 109.186 235.97C92.5001 194.915 75.2563 152.439 91.9422 124.595C108.628 96.7517 154.223 91.9843 198.321 87.369C235.472 83.4638 273.915 79.4571 292.681 61.275C312.46 42.1293 317.963 2.84889 323.314 -35.1382C329.349 -77.9942 335.562 -122.321 362.569 -137.283C390.134 -152.548 431.443 -134.163 471.408 -116.362C506.098 -100.918 541.981 -84.9425 568.075 -91.485C594.169 -98.0275 618.31 -128.99 641.64 -158.964C668.317 -193.249 695.932 -228.675 727.149 -228.675C727.377 -228.675 727.58 -228.675 727.808 -228.675C758.67 -228.193 785.042 -192.032 810.528 -157.062C833.122 -126.074 856.503 -93.9955 882.952 -86.4386C908.057 -79.2368 943.863 -93.7926 978.478 -107.841C1019.53 -124.527 1062.01 -141.796 1089.85 -125.085C1117.7 -108.399 1122.46 -62.8044 1127.08 -18.7059C1130.98 18.4444 1134.99 56.888 1153.17 75.6533C1172.32 95.433 1211.6 100.936 1249.59 106.286C1292.44 112.322 1336.77 118.535 1351.73 145.542C1367 173.106 1348.61 214.415 1330.81 254.381C1315.37 289.071 1299.39 324.953 1305.93 351.047C1312.48 377.141 1343.44 401.283 1373.41 424.613C1407.92 451.493 1443.6 479.26 1443.12 510.781C1442.64 541.642 1406.48 568.015 1371.51 593.501C1340.52 616.095 1308.44 639.476 1300.89 665.925C1293.68 691.03 1308.24 726.836 1322.29 761.45C1338.98 802.506 1356.22 844.981 1339.53 872.825C1322.85 900.669 1277.25 905.436 1233.15 910.052C1196 913.957 1157.56 917.963 1138.79 936.146C1119.01 955.291 1113.51 994.572 1108.16 1032.56C1102.13 1075.41 1095.91 1119.74 1068.91 1134.7C1041.34 1149.97 1000.03 1131.58 960.067 1113.78C925.377 1098.34 889.494 1082.36 863.4 1088.91C837.307 1095.45 813.165 1126.41 789.835 1156.38C763.158 1190.69 735.568 1226.12 704.326 1226.12Z" stroke="url(#paint6_radial_197_376)" stroke-opacity="0.3" stroke-width="2" mask="url(#path-7-inside-7_197_376)"/>
</g>
<g id="Vector_8">
<mask id="path-8-inside-8_197_376" fill="white">
<path d="M533.485 1080.64C538.886 1080.64 544.034 1081.27 548.877 1082.64C575.758 1090.35 599.265 1122.58 621.986 1153.75C647.294 1188.46 673.464 1224.37 703.717 1224.85C703.92 1224.85 704.148 1224.85 704.351 1224.85C734.959 1224.85 762.371 1189.66 788.871 1155.62C812.328 1125.5 836.596 1094.33 863.121 1087.69C889.646 1081.04 925.731 1097.12 960.624 1112.64C1000.31 1130.32 1041.32 1148.57 1068.32 1133.61C1094.77 1118.96 1100.96 1074.96 1106.94 1032.41C1112.32 994.191 1117.87 954.708 1137.96 935.258C1157.03 916.771 1193.97 912.917 1233.05 908.809C1276.82 904.219 1322.09 899.477 1338.47 872.191C1354.85 844.905 1337.71 802.734 1321.15 761.957C1306.34 725.543 1292.37 691.131 1299.69 665.595C1307.4 638.715 1339.63 615.207 1370.8 592.486C1405.52 567.178 1441.42 540.983 1441.9 510.755C1442.39 479.894 1406.96 452.304 1372.68 425.627C1342.55 402.17 1311.38 377.902 1304.74 351.377C1298.1 324.852 1314.17 288.767 1329.69 253.873C1347.37 214.187 1365.63 173.157 1350.66 146.175C1336.01 119.726 1292.01 113.539 1249.46 107.554C1211.24 102.178 1171.76 96.6248 1152.31 76.5408C1133.82 57.4711 1129.97 20.5237 1125.86 -18.5538C1121.27 -62.3227 1116.53 -107.588 1089.24 -123.969C1061.96 -140.351 1019.79 -123.209 979.009 -106.649C942.595 -91.8654 908.183 -77.8675 882.647 -85.1961C855.767 -92.9051 832.259 -125.136 809.538 -156.302C784.23 -191.017 758.035 -226.925 727.807 -227.407C727.605 -227.407 727.376 -227.407 727.174 -227.407C696.566 -227.407 669.153 -192.209 642.653 -158.178C619.197 -128.052 594.929 -96.8864 568.404 -90.2425C541.878 -83.5986 505.793 -99.6759 470.9 -115.195C431.214 -132.87 390.184 -151.128 363.202 -136.167C336.753 -121.51 330.566 -77.5125 324.581 -34.9608C319.205 3.25452 313.651 42.7378 293.567 62.1878C274.498 80.6742 237.55 84.5287 198.473 88.6368C154.704 93.2267 109.439 97.9688 93.0572 125.255L92.5247 124.925L93.0572 125.255C76.6756 152.54 93.818 194.712 110.402 235.488C125.187 271.903 139.184 306.289 131.856 331.851C124.147 358.731 91.9161 382.238 60.7504 404.96C26.0345 430.267 -9.87319 456.463 -10.355 486.69C-10.8368 517.552 24.5891 545.142 58.8739 571.844C88.9999 595.301 120.166 619.569 126.809 646.094C133.453 672.619 117.376 708.704 101.857 743.598C84.1817 783.284 65.9236 824.314 80.8851 851.296C95.5424 877.745 139.539 883.932 182.091 889.917C220.307 895.293 259.79 900.846 279.24 920.93C297.726 940 301.581 976.947 305.689 1016.02C310.279 1059.79 315.021 1105.06 342.307 1121.44C369.592 1137.82 411.764 1120.68 452.54 1104.1C482.058 1092.1 510.256 1080.64 533.485 1080.64Z"/>
</mask>
<path d="M533.485 1080.64C538.886 1080.64 544.034 1081.27 548.877 1082.64C575.758 1090.35 599.265 1122.58 621.986 1153.75C647.294 1188.46 673.464 1224.37 703.717 1224.85C703.92 1224.85 704.148 1224.85 704.351 1224.85C734.959 1224.85 762.371 1189.66 788.871 1155.62C812.328 1125.5 836.596 1094.33 863.121 1087.69C889.646 1081.04 925.731 1097.12 960.624 1112.64C1000.31 1130.32 1041.32 1148.57 1068.32 1133.61C1094.77 1118.96 1100.96 1074.96 1106.94 1032.41C1112.32 994.191 1117.87 954.708 1137.96 935.258C1157.03 916.771 1193.97 912.917 1233.05 908.809C1276.82 904.219 1322.09 899.477 1338.47 872.191C1354.85 844.905 1337.71 802.734 1321.15 761.957C1306.34 725.543 1292.37 691.131 1299.69 665.595C1307.4 638.715 1339.63 615.207 1370.8 592.486C1405.52 567.178 1441.42 540.983 1441.9 510.755C1442.39 479.894 1406.96 452.304 1372.68 425.627C1342.55 402.17 1311.38 377.902 1304.74 351.377C1298.1 324.852 1314.17 288.767 1329.69 253.873C1347.37 214.187 1365.63 173.157 1350.66 146.175C1336.01 119.726 1292.01 113.539 1249.46 107.554C1211.24 102.178 1171.76 96.6248 1152.31 76.5408C1133.82 57.4711 1129.97 20.5237 1125.86 -18.5538C1121.27 -62.3227 1116.53 -107.588 1089.24 -123.969C1061.96 -140.351 1019.79 -123.209 979.009 -106.649C942.595 -91.8654 908.183 -77.8675 882.647 -85.1961C855.767 -92.9051 832.259 -125.136 809.538 -156.302C784.23 -191.017 758.035 -226.925 727.807 -227.407C727.605 -227.407 727.376 -227.407 727.174 -227.407C696.566 -227.407 669.153 -192.209 642.653 -158.178C619.197 -128.052 594.929 -96.8864 568.404 -90.2425C541.878 -83.5986 505.793 -99.6759 470.9 -115.195C431.214 -132.87 390.184 -151.128 363.202 -136.167C336.753 -121.51 330.566 -77.5125 324.581 -34.9608C319.205 3.25452 313.651 42.7378 293.567 62.1878C274.498 80.6742 237.55 84.5287 198.473 88.6368C154.704 93.2267 109.439 97.9688 93.0572 125.255L92.5247 124.925L93.0572 125.255C76.6756 152.54 93.818 194.712 110.402 235.488C125.187 271.903 139.184 306.289 131.856 331.851C124.147 358.731 91.9161 382.238 60.7504 404.96C26.0345 430.267 -9.87319 456.463 -10.355 486.69C-10.8368 517.552 24.5891 545.142 58.8739 571.844C88.9999 595.301 120.166 619.569 126.809 646.094C133.453 672.619 117.376 708.704 101.857 743.598C84.1817 783.284 65.9236 824.314 80.8851 851.296C95.5424 877.745 139.539 883.932 182.091 889.917C220.307 895.293 259.79 900.846 279.24 920.93C297.726 940 301.581 976.947 305.689 1016.02C310.279 1059.79 315.021 1105.06 342.307 1121.44C369.592 1137.82 411.764 1120.68 452.54 1104.1C482.058 1092.1 510.256 1080.64 533.485 1080.64Z" stroke="url(#paint7_radial_197_376)" stroke-opacity="0.3" stroke-width="2" mask="url(#path-8-inside-8_197_376)"/>
</g>
</g>
</g>
</g>
</g>
<g id="Group_17">
<g id="Group_18">
<g id="Group_19">
<g id="Group_20">
<g id="Vector_9">
<mask id="path-9-inside-9_197_376" fill="white">
<path d="M706.761 1240.3C706.583 1240.3 706.431 1240.3 706.254 1240.3C674.708 1239.92 647.498 1203.7 621.201 1168.71C597.947 1137.75 573.907 1105.74 546.901 1098.11C521.263 1090.86 485.051 1105.31 450.031 1119.26C408.367 1135.87 365.283 1153.04 336.779 1136.07C308.251 1119.11 302.774 1073.06 297.474 1028.53C293.011 991.098 288.395 952.376 269.782 933.306C250.18 913.222 210.57 907.39 172.278 901.735C128.966 895.344 84.1574 888.751 68.7648 861.212C53.0425 833.114 71.0724 791.044 88.4937 750.369C103.582 715.146 119.178 678.706 112.432 652.105C105.662 625.504 74.5719 600.957 44.4713 577.196C9.73006 549.783 -26.1777 521.432 -25.7973 489.227C-25.4169 457.681 10.7951 430.471 45.7899 404.174C76.7527 380.92 108.755 356.88 116.388 329.874C123.641 304.236 109.186 268.024 95.2391 233.004C78.6293 191.34 61.4615 148.281 78.4264 119.753C95.3913 91.2242 141.442 85.7467 185.972 80.4468C223.401 75.9837 262.124 71.3684 281.194 52.7552C301.277 33.153 307.11 -6.45703 312.765 -44.7485C319.155 -88.0609 325.748 -132.869 353.288 -148.262C381.411 -163.984 423.455 -145.955 464.13 -128.533C499.353 -113.445 535.793 -97.8239 562.395 -104.595C588.996 -111.365 613.543 -142.455 637.304 -172.556C664.564 -207.119 692.788 -242.824 724.765 -242.824C724.943 -242.824 725.095 -242.824 725.273 -242.824C756.819 -242.444 784.028 -206.232 810.325 -171.237C833.579 -140.274 857.619 -108.272 884.626 -100.639C910.263 -93.4116 946.475 -107.841 981.521 -121.788C1023.19 -138.398 1066.27 -155.565 1094.77 -138.626C1123.3 -121.661 1128.78 -75.6098 1134.08 -31.0802C1138.54 6.34904 1143.16 45.0716 1161.77 64.1412C1181.37 84.2252 1220.98 90.0577 1259.3 95.7126C1302.61 102.103 1347.42 108.696 1362.81 136.236C1378.53 164.333 1360.5 206.403 1343.08 247.078C1327.99 282.301 1312.4 318.741 1319.14 345.342C1325.92 371.943 1357.01 396.491 1387.11 420.252C1421.85 447.664 1457.78 476.015 1457.37 508.22C1456.99 539.766 1420.78 566.976 1385.79 593.273C1354.82 616.527 1322.82 640.567 1315.19 667.574C1307.94 693.211 1322.39 729.423 1336.34 764.443C1352.95 806.107 1370.12 849.192 1353.15 877.695C1336.19 906.223 1290.13 911.701 1245.61 917C1208.18 921.464 1169.45 926.079 1150.38 944.667C1130.3 964.269 1124.47 1003.88 1118.81 1042.2C1112.42 1085.51 1105.83 1130.32 1078.29 1145.71C1050.19 1161.43 1008.12 1143.4 967.447 1125.98C932.224 1110.89 895.784 1095.3 869.183 1102.04C842.581 1108.81 818.034 1139.9 794.273 1170C766.962 1204.57 738.763 1240.3 706.761 1240.3Z"/>
</mask>
<path d="M706.761 1240.3C706.583 1240.3 706.431 1240.3 706.254 1240.3C674.708 1239.92 647.498 1203.7 621.201 1168.71C597.947 1137.75 573.907 1105.74 546.901 1098.11C521.263 1090.86 485.051 1105.31 450.031 1119.26C408.367 1135.87 365.283 1153.04 336.779 1136.07C308.251 1119.11 302.774 1073.06 297.474 1028.53C293.011 991.098 288.395 952.376 269.782 933.306C250.18 913.222 210.57 907.39 172.278 901.735C128.966 895.344 84.1574 888.751 68.7648 861.212C53.0425 833.114 71.0724 791.044 88.4937 750.369C103.582 715.146 119.178 678.706 112.432 652.105C105.662 625.504 74.5719 600.957 44.4713 577.196C9.73006 549.783 -26.1777 521.432 -25.7973 489.227C-25.4169 457.681 10.7951 430.471 45.7899 404.174C76.7527 380.92 108.755 356.88 116.388 329.874C123.641 304.236 109.186 268.024 95.2391 233.004C78.6293 191.34 61.4615 148.281 78.4264 119.753C95.3913 91.2242 141.442 85.7467 185.972 80.4468C223.401 75.9837 262.124 71.3684 281.194 52.7552C301.277 33.153 307.11 -6.45703 312.765 -44.7485C319.155 -88.0609 325.748 -132.869 353.288 -148.262C381.411 -163.984 423.455 -145.955 464.13 -128.533C499.353 -113.445 535.793 -97.8239 562.395 -104.595C588.996 -111.365 613.543 -142.455 637.304 -172.556C664.564 -207.119 692.788 -242.824 724.765 -242.824C724.943 -242.824 725.095 -242.824 725.273 -242.824C756.819 -242.444 784.028 -206.232 810.325 -171.237C833.579 -140.274 857.619 -108.272 884.626 -100.639C910.263 -93.4116 946.475 -107.841 981.521 -121.788C1023.19 -138.398 1066.27 -155.565 1094.77 -138.626C1123.3 -121.661 1128.78 -75.6098 1134.08 -31.0802C1138.54 6.34904 1143.16 45.0716 1161.77 64.1412C1181.37 84.2252 1220.98 90.0577 1259.3 95.7126C1302.61 102.103 1347.42 108.696 1362.81 136.236C1378.53 164.333 1360.5 206.403 1343.08 247.078C1327.99 282.301 1312.4 318.741 1319.14 345.342C1325.92 371.943 1357.01 396.491 1387.11 420.252C1421.85 447.664 1457.78 476.015 1457.37 508.22C1456.99 539.766 1420.78 566.976 1385.79 593.273C1354.82 616.527 1322.82 640.567 1315.19 667.574C1307.94 693.211 1322.39 729.423 1336.34 764.443C1352.95 806.107 1370.12 849.192 1353.15 877.695C1336.19 906.223 1290.13 911.701 1245.61 917C1208.18 921.464 1169.45 926.079 1150.38 944.667C1130.3 964.269 1124.47 1003.88 1118.81 1042.2C1112.42 1085.51 1105.83 1130.32 1078.29 1145.71C1050.19 1161.43 1008.12 1143.4 967.447 1125.98C932.224 1110.89 895.784 1095.3 869.183 1102.04C842.581 1108.81 818.034 1139.9 794.273 1170C766.962 1204.57 738.763 1240.3 706.761 1240.3Z" stroke="url(#paint8_radial_197_376)" stroke-opacity="0.3" stroke-width="2" mask="url(#path-9-inside-9_197_376)"/>
</g>
<g id="Vector_10">
<mask id="path-10-inside-10_197_376" fill="white">
<path d="M531.736 1094.92C537.214 1094.92 542.412 1095.52 547.256 1096.89C574.694 1104.63 598.86 1136.83 622.241 1167.95C648.36 1202.72 675.367 1238.67 706.279 1239.05C706.431 1239.05 706.609 1239.05 706.786 1239.05C738.155 1239.05 766.151 1203.58 793.259 1169.27C817.147 1139.01 841.821 1107.75 868.853 1100.88C895.86 1094 932.503 1109.7 967.929 1124.86C1008.33 1142.16 1050.09 1160.06 1077.66 1144.64C1104.66 1129.56 1111.2 1085.05 1117.54 1042.04C1123.22 1003.52 1129.08 963.711 1149.47 943.804C1168.84 924.887 1207.77 920.246 1245.43 915.783C1289.65 910.509 1335.4 905.082 1352.04 877.086C1368.67 849.115 1351.63 806.31 1335.12 764.95C1321.07 729.727 1306.57 693.312 1313.92 667.244C1321.66 639.806 1353.86 615.639 1384.98 592.259C1419.74 566.139 1455.7 539.132 1456.06 508.22C1456.44 476.649 1420.76 448.501 1386.27 421.266C1356.02 397.403 1324.75 372.704 1317.88 345.697C1311 318.69 1326.7 282.047 1341.87 246.621C1359.19 206.225 1377.06 164.434 1361.65 136.895C1346.56 109.888 1302.05 103.345 1259.05 97.0058C1220.53 91.3255 1180.71 85.4677 1160.81 65.0794C1141.89 45.7055 1137.25 6.78006 1132.78 -30.8774C1127.51 -75.1027 1122.06 -120.85 1094.09 -137.485C1066.09 -154.12 1023.31 -137.054 981.952 -120.571C946.729 -106.522 910.314 -92.0169 884.246 -99.3709C856.808 -107.105 832.641 -139.311 809.26 -170.426C783.141 -205.192 756.134 -241.151 725.222 -241.531C725.07 -241.531 724.892 -241.531 724.715 -241.531C693.346 -241.531 665.325 -206.054 638.242 -171.744C614.354 -141.491 589.681 -110.224 562.674 -103.352C535.641 -96.48 499.024 -112.177 463.598 -127.341C423.202 -144.636 381.411 -162.539 353.871 -147.121C326.864 -132.033 320.322 -87.5284 313.982 -44.5203C308.302 -6.00065 302.444 33.8123 282.056 53.7188C262.682 72.6363 223.731 77.2769 186.099 81.74C141.874 87.0146 96.1268 92.4666 79.4916 120.437L78.9591 120.107L79.4916 120.437C62.8564 148.433 79.9227 191.213 96.4058 232.573C110.454 267.796 124.96 304.211 117.606 330.279C109.871 357.717 77.6658 381.884 46.5509 405.265C11.7843 431.384 -24.1742 458.391 -24.5292 489.303C-24.9096 520.874 10.7699 549.022 45.2576 576.257C75.5103 600.145 106.777 624.819 113.65 651.826C120.522 678.833 104.825 715.476 89.6604 750.902C72.3405 791.298 54.4627 833.064 69.8807 860.628C84.9691 887.635 129.473 894.178 172.481 900.517C211.001 906.198 250.814 912.055 270.721 932.444C289.638 951.818 294.279 990.768 298.742 1028.4C304.016 1072.63 309.468 1118.35 337.439 1135.01C365.409 1151.64 408.215 1134.58 449.574 1118.09C478.23 1106.66 507.696 1094.92 531.736 1094.92Z"/>
</mask>
<path d="M531.736 1094.92C537.214 1094.92 542.412 1095.52 547.256 1096.89C574.694 1104.63 598.86 1136.83 622.241 1167.95C648.36 1202.72 675.367 1238.67 706.279 1239.05C706.431 1239.05 706.609 1239.05 706.786 1239.05C738.155 1239.05 766.151 1203.58 793.259 1169.27C817.147 1139.01 841.821 1107.75 868.853 1100.88C895.86 1094 932.503 1109.7 967.929 1124.86C1008.33 1142.16 1050.09 1160.06 1077.66 1144.64C1104.66 1129.56 1111.2 1085.05 1117.54 1042.04C1123.22 1003.52 1129.08 963.711 1149.47 943.804C1168.84 924.887 1207.77 920.246 1245.43 915.783C1289.65 910.509 1335.4 905.082 1352.04 877.086C1368.67 849.115 1351.63 806.31 1335.12 764.95C1321.07 729.727 1306.57 693.312 1313.92 667.244C1321.66 639.806 1353.86 615.639 1384.98 592.259C1419.74 566.139 1455.7 539.132 1456.06 508.22C1456.44 476.649 1420.76 448.501 1386.27 421.266C1356.02 397.403 1324.75 372.704 1317.88 345.697C1311 318.69 1326.7 282.047 1341.87 246.621C1359.19 206.225 1377.06 164.434 1361.65 136.895C1346.56 109.888 1302.05 103.345 1259.05 97.0058C1220.53 91.3255 1180.71 85.4677 1160.81 65.0794C1141.89 45.7055 1137.25 6.78006 1132.78 -30.8774C1127.51 -75.1027 1122.06 -120.85 1094.09 -137.485C1066.09 -154.12 1023.31 -137.054 981.952 -120.571C946.729 -106.522 910.314 -92.0169 884.246 -99.3709C856.808 -107.105 832.641 -139.311 809.26 -170.426C783.141 -205.192 756.134 -241.151 725.222 -241.531C725.07 -241.531 724.892 -241.531 724.715 -241.531C693.346 -241.531 665.325 -206.054 638.242 -171.744C614.354 -141.491 589.681 -110.224 562.674 -103.352C535.641 -96.48 499.024 -112.177 463.598 -127.341C423.202 -144.636 381.411 -162.539 353.871 -147.121C326.864 -132.033 320.322 -87.5284 313.982 -44.5203C308.302 -6.00065 302.444 33.8123 282.056 53.7188C262.682 72.6363 223.731 77.2769 186.099 81.74C141.874 87.0146 96.1268 92.4666 79.4916 120.437L78.9591 120.107L79.4916 120.437C62.8564 148.433 79.9227 191.213 96.4058 232.573C110.454 267.796 124.96 304.211 117.606 330.279C109.871 357.717 77.6658 381.884 46.5509 405.265C11.7843 431.384 -24.1742 458.391 -24.5292 489.303C-24.9096 520.874 10.7699 549.022 45.2576 576.257C75.5103 600.145 106.777 624.819 113.65 651.826C120.522 678.833 104.825 715.476 89.6604 750.902C72.3405 791.298 54.4627 833.064 69.8807 860.628C84.9691 887.635 129.473 894.178 172.481 900.517C211.001 906.198 250.814 912.055 270.721 932.444C289.638 951.818 294.279 990.768 298.742 1028.4C304.016 1072.63 309.468 1118.35 337.439 1135.01C365.409 1151.64 408.215 1134.58 449.574 1118.09C478.23 1106.66 507.696 1094.92 531.736 1094.92Z" stroke="url(#paint9_radial_197_376)" stroke-opacity="0.3" stroke-width="2" mask="url(#path-10-inside-10_197_376)"/>
</g>
</g>
</g>
</g>
</g>
<g id="Group_21">
<g id="Group_22">
<g id="Group_23">
<g id="Group_24">
<g id="Vector_11">
<mask id="path-11-inside-11_197_376" fill="white">
<path d="M709.195 1254.47C709.068 1254.47 708.942 1254.47 708.815 1254.47C676.584 1254.19 648.563 1217.96 621.454 1182.91C597.567 1152 572.867 1120.05 545.277 1112.36C519.107 1105.06 482.464 1119.41 447.038 1133.26C404.791 1149.79 361.098 1166.88 331.885 1149.67C302.672 1132.45 296.484 1085.94 290.5 1040.95C285.479 1003.24 280.28 964.243 261.236 944.869C241.177 924.456 201.238 918.319 162.642 912.36C118.848 905.614 73.5826 898.641 57.7335 870.569C41.5801 841.913 59.2043 799.108 76.2706 757.698C91.0039 721.942 106.244 684.969 99.2455 657.861C92.2465 630.753 61.0301 605.774 30.8281 581.633C-4.11602 553.637 -40.2773 524.728 -39.9984 491.813C-39.7195 459.582 -3.48206 431.561 31.5888 404.453C62.5009 380.565 94.4527 355.866 102.136 328.276C109.414 302.106 95.0867 265.463 81.2409 230.037C64.7071 187.789 47.6154 144.096 64.8339 114.883C82.0524 85.6703 128.56 79.4828 173.546 73.4982C211.254 68.4772 250.256 63.2787 269.63 44.2344C290.043 24.1758 296.18 -15.764 302.139 -54.3597C308.885 -98.1539 315.858 -143.444 343.93 -159.268C372.585 -175.421 415.391 -157.797 456.801 -140.731C492.557 -125.998 529.53 -110.757 556.638 -117.756C583.746 -124.755 608.724 -155.971 632.866 -186.174C660.735 -220.991 689.542 -257 722.28 -257C722.407 -257 722.534 -257 722.66 -257C754.891 -256.721 782.912 -220.484 810.021 -185.438C833.909 -154.526 858.608 -122.574 886.198 -114.891C912.368 -107.587 949.011 -121.94 984.437 -135.786C1026.68 -152.32 1070.38 -169.412 1099.59 -152.193C1128.78 -134.975 1134.99 -88.467 1140.98 -43.4809C1146 -5.77271 1151.19 33.2288 1170.24 52.6027C1190.3 73.0164 1230.24 79.1531 1268.83 85.1124C1312.63 91.8578 1357.89 98.8314 1373.74 126.903C1389.89 155.558 1372.27 198.364 1355.2 239.774C1340.47 275.53 1325.23 312.503 1332.23 339.611C1339.23 366.719 1370.44 391.697 1400.65 415.839C1435.62 443.809 1471.78 472.743 1471.5 505.633C1471.22 537.864 1434.98 565.885 1399.91 592.994C1369 616.882 1337.05 641.581 1329.36 669.171C1322.06 695.341 1336.41 731.984 1350.26 767.41C1366.79 809.657 1383.89 853.35 1366.67 882.563C1349.45 911.776 1302.94 917.964 1257.95 923.948C1220.25 928.969 1181.24 934.168 1161.87 953.212C1141.46 973.271 1135.32 1013.21 1129.36 1051.81C1122.62 1095.6 1115.64 1140.89 1087.57 1156.71C1058.92 1172.87 1016.11 1155.24 974.699 1138.18C938.944 1123.44 901.971 1108.2 874.863 1115.2C847.754 1122.2 822.776 1153.42 798.635 1183.62C770.74 1218.46 741.933 1254.47 709.195 1254.47Z"/>
</mask>
<path d="M709.195 1254.47C709.068 1254.47 708.942 1254.47 708.815 1254.47C676.584 1254.19 648.563 1217.96 621.454 1182.91C597.567 1152 572.867 1120.05 545.277 1112.36C519.107 1105.06 482.464 1119.41 447.038 1133.26C404.791 1149.79 361.098 1166.88 331.885 1149.67C302.672 1132.45 296.484 1085.94 290.5 1040.95C285.479 1003.24 280.28 964.243 261.236 944.869C241.177 924.456 201.238 918.319 162.642 912.36C118.848 905.614 73.5826 898.641 57.7335 870.569C41.5801 841.913 59.2043 799.108 76.2706 757.698C91.0039 721.942 106.244 684.969 99.2455 657.861C92.2465 630.753 61.0301 605.774 30.8281 581.633C-4.11602 553.637 -40.2773 524.728 -39.9984 491.813C-39.7195 459.582 -3.48206 431.561 31.5888 404.453C62.5009 380.565 94.4527 355.866 102.136 328.276C109.414 302.106 95.0867 265.463 81.2409 230.037C64.7071 187.789 47.6154 144.096 64.8339 114.883C82.0524 85.6703 128.56 79.4828 173.546 73.4982C211.254 68.4772 250.256 63.2787 269.63 44.2344C290.043 24.1758 296.18 -15.764 302.139 -54.3597C308.885 -98.1539 315.858 -143.444 343.93 -159.268C372.585 -175.421 415.391 -157.797 456.801 -140.731C492.557 -125.998 529.53 -110.757 556.638 -117.756C583.746 -124.755 608.724 -155.971 632.866 -186.174C660.735 -220.991 689.542 -257 722.28 -257C722.407 -257 722.534 -257 722.66 -257C754.891 -256.721 782.912 -220.484 810.021 -185.438C833.909 -154.526 858.608 -122.574 886.198 -114.891C912.368 -107.587 949.011 -121.94 984.437 -135.786C1026.68 -152.32 1070.38 -169.412 1099.59 -152.193C1128.78 -134.975 1134.99 -88.467 1140.98 -43.4809C1146 -5.77271 1151.19 33.2288 1170.24 52.6027C1190.3 73.0164 1230.24 79.1531 1268.83 85.1124C1312.63 91.8578 1357.89 98.8314 1373.74 126.903C1389.89 155.558 1372.27 198.364 1355.2 239.774C1340.47 275.53 1325.23 312.503 1332.23 339.611C1339.23 366.719 1370.44 391.697 1400.65 415.839C1435.62 443.809 1471.78 472.743 1471.5 505.633C1471.22 537.864 1434.98 565.885 1399.91 592.994C1369 616.882 1337.05 641.581 1329.36 669.171C1322.06 695.341 1336.41 731.984 1350.26 767.41C1366.79 809.657 1383.89 853.35 1366.67 882.563C1349.45 911.776 1302.94 917.964 1257.95 923.948C1220.25 928.969 1181.24 934.168 1161.87 953.212C1141.46 973.271 1135.32 1013.21 1129.36 1051.81C1122.62 1095.6 1115.64 1140.89 1087.57 1156.71C1058.92 1172.87 1016.11 1155.24 974.699 1138.18C938.944 1123.44 901.971 1108.2 874.863 1115.2C847.754 1122.2 822.776 1153.42 798.635 1183.62C770.74 1218.46 741.933 1254.47 709.195 1254.47Z" stroke="url(#paint10_radial_197_376)" stroke-opacity="0.3" stroke-width="2" mask="url(#path-11-inside-11_197_376)"/>
</g>
</g>
</g>
</g>
</g>
</g>
<defs>
<radialGradient id="paint0_radial_197_376" cx="0" cy="0" r="1" gradientUnits="userSpaceOnUse" gradientTransform="translate(715.725 498.742) rotate(90) scale(684.878 684.885)">
<stop stop-color="#D94C43"/>
<stop offset="1" stop-color="#32AE69"/>
</radialGradient>
<radialGradient id="paint1_radial_197_376" cx="0" cy="0" r="1" gradientUnits="userSpaceOnUse" gradientTransform="translate(715.737 498.743) rotate(90) scale(683.623 683.63)">
<stop stop-color="#D94C43"/>
<stop offset="1" stop-color="#32AE69"/>
</radialGradient>
<radialGradient id="paint2_radial_197_376" cx="0" cy="0" r="1" gradientUnits="userSpaceOnUse" gradientTransform="translate(715.737 498.767) rotate(90) scale(699.028 699.045)">
<stop stop-color="#D94C43"/>
<stop offset="1" stop-color="#32AE69"/>
</radialGradient>
<radialGradient id="paint3_radial_197_376" cx="0" cy="0" r="1" gradientUnits="userSpaceOnUse" gradientTransform="translate(715.737 498.736) rotate(90) scale(697.792 697.777)">
<stop stop-color="#D94C43"/>
<stop offset="1" stop-color="#32AE69"/>
</radialGradient>
<radialGradient id="paint4_radial_197_376" cx="0" cy="0" r="1" gradientUnits="userSpaceOnUse" gradientTransform="translate(715.726 498.758) rotate(90) scale(713.213 713.204)">
<stop stop-color="#D94C43"/>
<stop offset="1" stop-color="#32AE69"/>
</radialGradient>
<radialGradient id="paint5_radial_197_376" cx="0" cy="0" r="1" gradientUnits="userSpaceOnUse" gradientTransform="translate(715.7 498.727) rotate(90) scale(711.958 711.962)">
<stop stop-color="#D94C43"/>
<stop offset="1" stop-color="#32AE69"/>
</radialGradient>
<radialGradient id="paint6_radial_197_376" cx="0" cy="0" r="1" gradientUnits="userSpaceOnUse" gradientTransform="translate(715.738 498.723) rotate(90) scale(727.398 727.39)">
<stop stop-color="#D94C43"/>
<stop offset="1" stop-color="#32AE69"/>
</radialGradient>
<radialGradient id="paint7_radial_197_376" cx="0" cy="0" r="1" gradientUnits="userSpaceOnUse" gradientTransform="translate(715.775 498.723) rotate(90) scale(726.13 726.135)">
<stop stop-color="#D94C43"/>
<stop offset="1" stop-color="#32AE69"/>
</radialGradient>
<radialGradient id="paint8_radial_197_376" cx="0" cy="0" r="1" gradientUnits="userSpaceOnUse" gradientTransform="translate(715.789 498.736) rotate(90) scale(741.56 741.589)">
<stop stop-color="#D94C43"/>
<stop offset="1" stop-color="#32AE69"/>
</radialGradient>
<radialGradient id="paint9_radial_197_376" cx="0" cy="0" r="1" gradientUnits="userSpaceOnUse" gradientTransform="translate(715.763 498.762) rotate(90) scale(740.293 740.296)">
<stop stop-color="#D94C43"/>
<stop offset="1" stop-color="#32AE69"/>
</radialGradient>
<radialGradient id="paint10_radial_197_376" cx="0" cy="0" r="1" gradientUnits="userSpaceOnUse" gradientTransform="translate(715.75 498.736) rotate(90) scale(755.736 755.75)">
<stop stop-color="#D94C43"/>
<stop offset="1" stop-color="#32AE69"/>
</radialGradient>
</defs>
</svg>
